<?xml version="1.0" encoding="UTF-8"?> <!-- Generator: Adobe Illustrator 24.0.2, SVG Export Plug-In . SVG Version: 6.00 Build 0) --> <svg xmlns="http://www.w3.org/2000/svg" xmlns:xlink="http://www.w3.org/1999/xlink" id="Слой_1" x="0px" y="0px" width="1080px" height="1080px" viewBox="0 0 1080 1080" style="enable-background:new 0 0 1080 1080;" xml:space="preserve"> <style type="text/css"> .st0{fill:#FFFFFF;} .st1{fill:#D91A32;} .st2{fill:none;stroke:#D91A32;stroke-width:0.9598;stroke-miterlimit:10;} .st3{fill:none;stroke:#D91A32;stroke-width:2.8793;stroke-miterlimit:10;} .st4{fill-rule:evenodd;clip-rule:evenodd;fill:#808080;} .st5{fill:#808080;} .st6{fill:#EC1E24;stroke:#D91A32;stroke-width:2.4276;stroke-miterlimit:10;} .st7{fill:#EC1E24;} </style> <polygon class="st0" points="274.09,493 804,492.72 771,602.72 702,704.72 614,781.72 541,821.72 459,778.72 384,710.72 323,621.72 286,535.72 "></polygon> <g> <path class="st0" d="M602.09,905.35c0,0-14.97-4.64-40.62-14.13c-12.83-4.74-28.32-10.7-45.92-17.91 c-8.81-3.59-18.13-7.52-27.92-11.74c-9.78-4.23-19.98-8.77-30.3-14.12c-20.73-10.57-42.35-23.5-64.13-38.6 c-21.73-15.17-43.58-32.54-64.69-52c-10.59-9.69-20.83-20.05-30.78-30.88c-9.96-10.81-19.53-22.2-28.48-34.13 c-18.07-23.76-33.68-49.77-45.83-77.18c-6-13.73-11.14-27.8-15.28-42.07l-2.87-10.75c-0.83-3.44-1.55-7.25-2.33-10.85 c-0.77-3.65-1.53-7.3-2.3-10.94c-0.74-3.64-1.62-7.27-2.07-10.9c-1.09-7.25-2.17-14.48-3.24-21.67 c-0.98-7.21-1.43-14.47-2.16-21.64c-0.3-3.59-0.74-7.17-0.92-10.74c-0.14-3.58-0.27-7.15-0.41-10.7c-0.14-3.56-0.27-7.1-0.4-10.63 l-0.2-5.28l0.06-5.27c0.1-7.01,0.21-13.96,0.31-20.84c0.23-6.88,0.84-13.68,1.18-20.42c0.21-3.37,0.42-6.72,0.63-10.05 c0.37-3.32,0.74-6.62,1.11-9.89c0.78-6.55,1.35-13.05,2.28-19.42c2.13-12.69,3.83-25.11,6.66-36.92 c1.35-5.91,2.36-11.79,3.93-17.44c1.52-5.66,3.02-11.21,4.48-16.64c1.34-5.47,3.19-10.68,4.84-15.82 c1.68-5.13,3.31-10.14,4.91-15.03c1.83-4.81,3.61-9.5,5.35-14.06c1.76-4.55,3.31-9.03,5.29-13.19 c7.22-16.92,14.61-31.22,21.14-42.76c3.42-5.7,6.47-10.78,9.13-15.2c2.75-4.37,5.4-7.9,7.4-10.86c4.07-5.87,6.25-9,6.25-9 s-2.28,3.06-6.57,8.79c-2.1,2.9-4.89,6.35-7.8,10.63c-2.8,4.36-6.01,9.37-9.62,14.99c-6.86,11.42-14.67,25.6-22.38,42.43 c-2.11,4.13-3.78,8.6-5.68,13.13c-1.87,4.54-3.79,9.22-5.76,14.01c-1.79,4.86-3.45,9.9-5.24,15.04 c-1.75,5.15-3.69,10.37-5.13,15.86c-1.56,5.45-3.16,11.02-4.79,16.7c-1.67,5.67-2.79,11.57-4.25,17.51 c-3.04,11.86-4.96,24.35-7.32,37.12c-3.72,25.68-6.69,52.97-6.54,81.32l-0.09,5.32l0.17,5.34c0.12,3.57,0.23,7.15,0.35,10.74 c0.12,3.59,0.24,7.2,0.35,10.82c0.17,3.62,0.59,7.23,0.87,10.87c0.7,7.26,1.11,14.58,2.07,21.92c1.06,7.33,2.12,14.69,3.19,22.09 c0.44,3.73,1.3,7.33,2.02,10.98c0.75,3.64,1.49,7.29,2.24,10.95c0.78,3.69,1.42,7.22,2.32,11.07l2.87,10.99 c4.15,14.59,9.29,28.98,15.37,43c12.54,27.89,28.57,54.26,47.02,78.27c9.15,12.07,18.9,23.55,29.05,34.45 c10.13,10.91,20.55,21.34,31.31,31.09c21.36,19.66,43.81,36.78,65.96,51.77c22.22,14.91,44.22,27.62,65.3,37.96 c21.1,10.48,41.3,17.88,59.06,24.8c17.82,6.79,33.49,12.38,46.45,16.81C586.93,901.29,602.09,905.35,602.09,905.35z"></path> <path class="st0" d="M445.11,865.09c0,0-55.24-20.34-93.2-7.84c-37.95,12.5-134.01,38.02-177.1,22.84 C174.81,880.09,292.38,935.4,445.11,865.09z"></path> <path class="st0" d="M381.77,833.86c0,0-31.4-30.4-75.73-19.09c-44.33,11.32-102.86,18.78-123.37-1 C182.67,813.77,242.16,875.49,381.77,833.86z"></path> <path class="st0" d="M329.08,786.4c0,0-33.05-35.78-86.75-28.87c-53.7,6.91-71.24,4.27-87.2-12.41 C155.13,745.13,195.84,817.65,329.08,786.4z"></path> <path class="st0" d="M279.67,739.57c0,0-27.31-40.65-82.8-42.51c-55.49-1.86-72.78-7.3-86.07-26.34 C110.81,670.72,139.56,748.88,279.67,739.57z"></path> <path class="st0" d="M229.77,679.77c0,0-19.59-44.44-73.31-55.11c-53.72-10.67-69.62-18.79-79.28-39.68 C77.18,584.98,91.71,666.63,229.77,679.77z"></path> <path class="st0" d="M203.02,626.84c0,0-15.59-45.86-68.17-60.83c-52.59-14.97-67.71-24.34-75.49-45.94 C59.36,520.07,66.61,602.61,203.02,626.84z"></path> <path class="st0" d="M186.29,573.45c0,0-8.94-46.83-57.26-66.56s-61.55-30.42-66.18-52.51C62.85,454.38,59.08,536.71,186.29,573.45 z"></path> <path class="st0" d="M176.4,519.17c0,0-4.75-46.31-50.15-69.27c-45.4-22.96-57.39-34.39-60.03-56.27 C66.21,393.62,55.57,473.54,176.4,519.17z"></path> <path class="st0" d="M168.11,461.06c0,0,0.89-45.17-40.17-72.21c-41.07-27.04-51.28-39.36-51.24-60.75 C76.7,328.1,56.98,404.02,168.11,461.06z"></path> <path class="st0" d="M172.7,403.59c0,0,5.3-43.33-31.49-73c-36.8-29.67-45.4-42.43-43.26-62.97 C97.95,267.62,71.54,338.8,172.7,403.59z"></path> <path class="st0" d="M179.9,342.2c0,0,10.29-42.62-22.96-76.07c-33.25-33.45-40.35-47.07-35.84-67.32 C121.1,198.81,86.56,266.96,179.9,342.2z"></path> <path class="st0" d="M194.82,285.27c0,0,14.87-40.6-13.85-76.73c-28.72-36.13-34.12-50.18-27.43-69.5 C153.54,139.03,112.08,202.09,194.82,285.27z"></path> <path class="st0" d="M213.7,231.1c0,0,19.67-36.57-2.54-74.38c-22.21-37.81-25.39-51.79-16.39-69.25 C194.77,87.48,146.83,141.95,213.7,231.1z"></path> <path class="st0" d="M239.01,186.42c0,0,26.42-30,14.18-69.65c-12.24-39.66-12.09-53.3,0.16-67.7 C253.35,49.07,196.67,89.98,239.01,186.42z"></path> <path class="st0" d="M474.74,905.35c0,0,14.97-4.64,40.62-14.13c12.83-4.74,28.32-10.7,45.92-17.91 c8.81-3.59,18.13-7.52,27.92-11.74c9.78-4.23,19.98-8.77,30.3-14.12c20.73-10.57,42.35-23.5,64.13-38.6 c21.73-15.17,43.58-32.54,64.69-52c10.59-9.69,20.83-20.05,30.78-30.88c9.96-10.81,19.53-22.2,28.48-34.13 c18.07-23.76,33.68-49.77,45.83-77.18c6-13.73,11.14-27.8,15.27-42.07l2.87-10.75c0.83-3.44,1.55-7.25,2.34-10.85 c0.77-3.65,1.53-7.3,2.3-10.94c0.74-3.64,1.62-7.27,2.07-10.9c1.09-7.25,2.17-14.48,3.24-21.67c0.98-7.21,1.43-14.47,2.16-21.64 c0.3-3.59,0.74-7.17,0.92-10.74c0.14-3.58,0.27-7.15,0.41-10.7c0.14-3.56,0.27-7.1,0.4-10.63l0.2-5.28l-0.06-5.27 c-0.1-7.01-0.21-13.96-0.31-20.84c-0.23-6.88-0.84-13.68-1.18-20.42c-0.21-3.37-0.42-6.72-0.63-10.05 c-0.37-3.32-0.74-6.62-1.11-9.89c-0.78-6.55-1.35-13.05-2.28-19.42c-2.13-12.69-3.83-25.11-6.66-36.92 c-1.35-5.91-2.36-11.79-3.93-17.44c-1.52-5.66-3.02-11.21-4.48-16.64c-1.34-5.47-3.19-10.68-4.84-15.82 c-1.68-5.13-3.31-10.14-4.91-15.03c-1.83-4.81-3.61-9.5-5.35-14.06c-1.76-4.55-3.31-9.03-5.29-13.19 c-7.22-16.92-14.61-31.22-21.14-42.76c-3.42-5.7-6.47-10.78-9.13-15.2c-2.75-4.37-5.4-7.9-7.4-10.86c-4.07-5.87-6.25-9-6.25-9 s2.28,3.06,6.57,8.79c2.1,2.9,4.89,6.35,7.8,10.63c2.8,4.36,6.01,9.37,9.62,14.99c6.86,11.42,14.67,25.6,22.38,42.43 c2.11,4.13,3.78,8.6,5.68,13.13c1.87,4.54,3.79,9.22,5.76,14.01c1.79,4.86,3.45,9.9,5.24,15.04c1.75,5.15,3.69,10.37,5.13,15.86 c1.56,5.45,3.16,11.02,4.79,16.7c1.67,5.67,2.79,11.57,4.25,17.51c3.04,11.86,4.96,24.35,7.32,37.12 c3.72,25.68,6.69,52.97,6.54,81.32l0.09,5.32l-0.17,5.34c-0.12,3.57-0.23,7.15-0.35,10.74c-0.12,3.59-0.24,7.2-0.35,10.82 c-0.17,3.62-0.59,7.23-0.87,10.87c-0.7,7.26-1.11,14.58-2.07,21.92c-1.06,7.33-2.12,14.69-3.19,22.09 c-0.44,3.73-1.3,7.33-2.02,10.98c-0.75,3.64-1.49,7.29-2.24,10.95c-0.78,3.69-1.42,7.22-2.32,11.07l-2.88,10.99 c-4.15,14.59-9.29,28.98-15.37,43c-12.54,27.89-28.57,54.26-47.02,78.27c-9.15,12.07-18.9,23.55-29.05,34.45 c-10.13,10.91-20.55,21.34-31.31,31.09c-21.36,19.66-43.81,36.78-65.96,51.77c-22.22,14.91-44.22,27.62-65.29,37.96 c-21.1,10.48-41.3,17.88-59.06,24.8c-17.82,6.79-33.49,12.38-46.45,16.81C489.9,901.29,474.74,905.35,474.74,905.35z"></path> <path class="st0" d="M631.73,865.09c0,0,55.24-20.34,93.2-7.84c37.95,12.5,134.01,38.02,177.1,22.84 C902.02,880.09,784.46,935.4,631.73,865.09z"></path> <path class="st0" d="M695.07,833.86c0,0,31.4-30.4,75.73-19.09c44.33,11.32,102.86,18.78,123.37-1 C894.16,813.77,834.67,875.49,695.07,833.86z"></path> <path class="st0" d="M747.75,786.4c0,0,33.05-35.78,86.75-28.87c53.7,6.91,71.24,4.27,87.2-12.41 C921.7,745.13,881,817.65,747.75,786.4z"></path> <path class="st0" d="M797.16,739.57c0,0,27.31-40.65,82.8-42.51c55.49-1.86,72.78-7.3,86.07-26.34 C966.02,670.72,937.27,748.88,797.16,739.57z"></path> <path class="st0" d="M847.06,679.77c0,0,19.59-44.44,73.31-55.11c53.72-10.67,69.62-18.79,79.28-39.68 C999.65,584.98,985.12,666.63,847.06,679.77z"></path> <path class="st0" d="M873.81,626.84c0,0,15.59-45.86,68.17-60.83c52.59-14.97,67.71-24.34,75.49-45.94 C1017.48,520.07,1010.22,602.61,873.81,626.84z"></path> <path class="st0" d="M890.54,573.45c0,0,8.94-46.83,57.26-66.56s61.55-30.42,66.18-52.51 C1013.98,454.38,1017.76,536.71,890.54,573.45z"></path> <path class="st0" d="M900.44,519.17c0,0,4.75-46.31,50.15-69.27c45.4-22.96,57.39-34.39,60.03-56.27 C1010.62,393.62,1021.27,473.54,900.44,519.17z"></path> <path class="st0" d="M908.72,461.06c0,0-0.89-45.17,40.17-72.21c41.07-27.04,51.28-39.36,51.24-60.75 C1000.13,328.1,1019.85,404.02,908.72,461.06z"></path> <path class="st0" d="M904.13,403.59c0,0-5.3-43.33,31.49-73c36.8-29.67,45.4-42.43,43.26-62.97 C978.88,267.62,1005.29,338.8,904.13,403.59z"></path> <path class="st0" d="M896.93,342.2c0,0-10.29-42.62,22.96-76.07c33.25-33.45,40.35-47.07,35.84-67.32 C955.73,198.81,990.27,266.96,896.93,342.2z"></path> <path class="st0" d="M882.02,285.27c0,0-14.87-40.6,13.85-76.73c28.72-36.13,34.12-50.18,27.42-69.5 C923.29,139.03,964.76,202.09,882.02,285.27z"></path> <path class="st0" d="M863.13,231.1c0,0-19.67-36.57,2.54-74.38c22.21-37.81,25.39-51.79,16.39-69.25 C882.06,87.48,930,141.95,863.13,231.1z"></path> <path class="st0" d="M837.82,186.42c0,0-26.42-30-14.18-69.65s12.09-53.3-0.16-67.7C823.49,49.07,880.16,89.98,837.82,186.42z"></path> </g> <g> <path class="st0" d="M435.95,932.32v80.22h7.01v18.39h-32.54v-18.39h7.13l-0.13-54.81h-7.51v-11.14c3.75-0.58,6.96-2.17,9.64-4.76 c2.67-2.58,4.34-5.76,5.01-9.51H435.95z"></path> <path class="st0" d="M469.86,932.32h32.41l14.39,14.27v70.08l-14.39,14.26h-32.41l-14.39-14.26v-13.77h18.4v6.01l3.63,3.63h17.14 l3.63-3.63v-18.02h-28.41l-14.39-14.26v-30.03L469.86,932.32z M498.27,972.49v-18.02l-3.63-3.63H477.5l-3.63,3.63v14.26l3.63,3.76 H498.27z"></path> <path class="st0" d="M575.98,1030.93h-32.41l-14.39-14.26v-70.08l14.39-14.27h32.41l14.39,14.27v13.77h-18.4v-6.01l-3.5-3.63H551.2 l-3.5,3.63v18.02h28.28l14.39,14.27v30.03L575.98,1030.93z M547.7,990.76v18.02l3.5,3.76h17.27l3.5-3.76v-14.26l-3.5-3.75H547.7z"></path> <path class="st0" d="M621.41,1008.78l3.5,3.76h17.27l3.5-3.76v-14.26l-3.5-3.75h-13.02v-18.4h13.02l3.5-3.75v-14.27l-3.5-3.5 h-17.27l-3.5,3.5v6.01h-18.52v-13.77l14.39-14.27h32.41l14.39,14.27v30.03l-5.13,5l5.13,5.01v30.03l-14.39,14.26h-32.41 l-14.39-14.26v-13.89h18.52V1008.78z"></path> </g> <path class="st0" d="M682.56,981.62L682.56,981.62c0-5.36,4.42-9.66,9.78-9.51l340.06,9.51l-340.06,9.51 C686.99,991.29,682.56,986.98,682.56,981.62z"></path> <path class="st0" d="M391.44,981.62L391.44,981.62c0-5.36-4.42-9.66-9.78-9.51L41.6,981.62l340.06,9.51 C387.01,991.29,391.44,986.98,391.44,981.62z"></path> <polygon class="st1" points="537.94,172.88 538.9,492.48 797.63,492.48 803.79,492.48 823.95,357.15 820.11,314.92 538.9,165.2 "></polygon> <polyline class="st2" points="279.18,492 538.42,492 797.63,492.09 "></polyline> <polygon class="st0" points="538.42,172.4 541,492 278.73,492 272.56,492 252.41,356.67 256.24,314.44 537.46,164.72 "></polygon> <line class="st3" x1="279.18" y1="492" x2="797.63" y2="492.48"></line> <polygon id="XMLID_2_" class="st4" points="394,746.58 456.7,677.58 473.85,685.05 514.66,631 540.09,655.73 549.56,649.4 586.23,687.35 612.25,662.05 685,746.58 614.91,674.7 604.27,704.89 614.02,720.42 551.33,658.31 550.65,682.35 586.23,746.58 519.69,647.1 538.91,700.86 512,648.54 497.21,683.33 500.17,660.61 463.2,742.55 467.64,708.05 452.26,694.25 "></polygon> <g> <path class="st5" d="M538.42,154.64L246.24,306.58c0,0-38.63,383.71,292.17,522.78C869.22,690.3,830.59,306.58,830.59,306.58 L538.42,154.64z M792.3,512.42c-40.11,142.34-125.5,242.87-253.88,298.91c-128.38-56.04-213.78-156.57-253.88-298.91 c-25.33-89.88-23.79-169.57-22.4-195.42l276.29-143.68L814.7,317C816.08,342.83,817.63,422.53,792.3,512.42z"></path> <path class="st0" d="M538.42,139.47L233.03,298.28c0,0-40.38,401.07,305.39,546.42C884.18,699.35,843.8,298.28,843.8,298.28 L538.42,139.47z M803.78,513.43C761.86,662.21,672.6,767.29,538.42,825.86c-134.19-58.57-223.44-163.65-265.36-312.43 c-26.47-93.95-24.86-177.24-23.42-204.26l288.78-150.18L827.2,309.17C828.64,336.17,830.26,419.47,803.78,513.43z"></path> </g> <g> <polygon class="st1" points="423.28,371.89 360.86,309.48 423.28,309.48 "></polygon> <polygon class="st1" points="487.87,371.89 425.45,309.48 487.87,309.48 "></polygon> <polygon class="st1" points="423.27,437.94 360.86,375.52 423.28,375.52 "></polygon> <polygon class="st1" points="487.87,437.94 425.45,375.52 487.87,375.52 "></polygon> </g> <g> <path class="st6" d="M336.04,541.16h16.74l26.63,34.21v-34.21h17.75v64.72h-15.72l-27.65-35.5v35.5h-17.75V541.16z"></path> <path class="st6" d="M431,540.7h17.29l27.55,65.18h-19.23l-4.72-11.56h-24.96l-4.62,11.56h-18.86L431,540.7z M446.72,580.36 l-7.21-18.4l-7.3,18.4H446.72z"></path> <path class="st6" d="M482.13,541.16h30.6c9.89,0,16.73,2.59,21.08,6.93c3.79,3.79,5.73,8.78,5.73,15.35 c0,9.89-5.27,16.46-13.31,19.88l15.44,22.56h-20.71l-13.04-19.6h-7.86v19.6h-17.94V541.16z M511.9,572.23 c6.1,0,9.62-2.96,9.62-7.86c0-5.09-3.7-7.67-9.71-7.67h-11.74v15.53H511.9z"></path> <path class="st7" d="M566.08,572.97l-39.91-61.06h20.62l30.1,47.47l11.56-18.21h20.16l-21.27,31.62l43.48,62.94h-20.62 l-33.68-49.34l-12.48,19.51h-20.16L566.08,572.97z"></path> <path class="st6" d="M609.26,573.52c0-18.58,14.98-33.65,34.95-33.65c19.97,0,34.76,14.89,34.76,33.65 c0,18.58-14.98,33.65-34.95,33.65S609.26,592.29,609.26,573.52z M660.67,573.52c0-9.34-6.75-17.47-16.64-17.47 c-9.8,0-16.37,7.95-16.37,17.47c0,9.34,6.75,17.47,16.55,17.47C654.1,590.99,660.67,583.04,660.67,573.52z"></path> <path class="st6" d="M683.32,592.84l32.45-36.52h-31.34v-15.16h56.12v13.04l-32.45,36.52h32.45v15.16h-57.23V592.84z"></path> </g> <g> <g> <polygon class="st0" points="722.68,380.13 722.68,351.92 704.81,334.05 674.17,356.24 712.34,362.79 "></polygon> <polygon class="st0" points="683.18,318.72 689.9,337.95 700.6,330.23 697.52,323.3 "></polygon> <polygon class="st0" points="677.74,370.79 673.04,383.99 671.16,407.3 674.61,435.85 656.61,414.14 654.28,401.23 656.83,385.01 "></polygon> <polygon class="st0" points="678.54,385.17 697.52,408.8 723.46,422.19 686.49,422.93 676.8,406.67 "></polygon> <polygon class="st0" points="672,368.46 651.71,381.7 645.88,401.1 640.4,437.08 626.7,397.88 634.61,377.11 "></polygon> <polygon class="st0" points="661.72,365.1 630.46,372.36 616.79,392.15 609.83,423.32 598.68,387.56 605.94,369.97 618.24,364.66 "></polygon> <polygon class="st0" points="660.18,359.48 611.63,351.25 596.44,352.77 583.48,387.33 601.59,365.04 617.26,359.48 "></polygon> <path class="st0" d="M723.03,360.89"></path> <path class="st0" d="M630.25,328.34l-20.31-16l36.62,4.4l-3.43-12.1l33.39,12.17l8.68,24.57c-1.23-1.14-15.69-13.08-15.69-13.08 H654l9.44,8.94l19.74,5.6l-16.67,12.07l-72.9-12.36L630.25,328.34z M632.73,345.04l4.96-2.29l3.71,4l-0.65-5.42l4.96-2.29 l-5.36-1.06l-0.65-5.42l-2.66,4.77l-5.36-1.06l3.71,4L632.73,345.04z"></path> </g> <circle class="st0" cx="638.52" cy="339.88" r="8.54"></circle> </g> </svg> 